<?xml version="1.0" encoding="UTF-8" standalone="no"?>
<svg
   version="1.1"
   width="16"
   height="16"
   id="svg7357"
   sodipodi:docname="system-software-update-grey-10.svg"
   inkscape:version="1.2.1 (9c6d41e410, 2022-07-14, custom)"
   xmlns:inkscape="http://www.inkscape.org/namespaces/inkscape"
   xmlns:sodipodi="http://sodipodi.sourceforge.net/DTD/sodipodi-0.dtd"
   xmlns="http://www.w3.org/2000/svg"
   xmlns:svg="http://www.w3.org/2000/svg"
   xmlns:rdf="http://www.w3.org/1999/02/22-rdf-syntax-ns#"
   xmlns:cc="http://creativecommons.org/ns#"
   xmlns:dc="http://purl.org/dc/elements/1.1/">
  <sodipodi:namedview
     id="namedview16"
     pagecolor="#ffffff"
     bordercolor="#666666"
     borderopacity="1.0"
     inkscape:pageshadow="2"
     inkscape:pageopacity="0.0"
     inkscape:pagecheckerboard="0"
     showgrid="false"
     inkscape:zoom="42.316588"
     inkscape:cx="5.1752755"
     inkscape:cy="7.6329405"
     inkscape:window-width="1263"
     inkscape:window-height="843"
     inkscape:window-x="455"
     inkscape:window-y="127"
     inkscape:window-maximized="0"
     inkscape:current-layer="svg7357"
     inkscape:showpageshadow="2"
     inkscape:deskcolor="#d1d1d1">
    <inkscape:grid
       type="xygrid"
       id="grid833" />
  </sodipodi:namedview>
  <defs
     id="defs7359" />
  <metadata
     id="metadata7362">
    <rdf:RDF>
      <cc:Work
         rdf:about="">
        <dc:format>image/svg+xml</dc:format>
        <dc:type
           rdf:resource="http://purl.org/dc/dcmitype/StillImage" />
      </cc:Work>
    </rdf:RDF>
  </metadata>
  <path
     id="path833"
     style="font-variation-settings:normal;opacity:1;vector-effect:none;fill:#e6e6e6;fill-opacity:1;stroke:none;stroke-width:4.00882;stroke-linecap:round;stroke-linejoin:round;stroke-miterlimit:4;stroke-dasharray:none;stroke-dashoffset:0;stroke-opacity:1;marker:none;paint-order:normal;stop-color:#000000;stop-opacity:1"
     d="M 7.9785156,15.998678 A 0.48377914,0.48375988 0 0 1 7.6152344,15.807272 l -1.84375,-2.429688 -3.0195313,0.414063 A 0.48377914,0.48375988 0 0 1 2.2050781,13.246725 L 2.6210938,10.225241 0.19140625,8.3834438 a 0.48377914,0.48375988 0 0 1 0,-0.7714844 L 2.6210938,5.7701622 2.2050781,2.7506312 a 0.48377914,0.48375988 0 0 1 0.546875,-0.546875 l 3.0195313,0.416016 1.84375,-2.42968796 a 0.48377914,0.48375988 0 0 1 0.7695312,0 l 1.8437504,2.42968796 3.019531,-0.416016 a 0.48377914,0.48375988 0 0 1 0.546875,0.546875 l -0.416016,3.019531 2.429688,1.8417972 a 0.48377914,0.48375988 0 0 1 0,0.7714844 l -2.429688,1.8417972 0.416016,3.021484 a 0.48377914,0.48375988 0 0 1 -0.546875,0.544922 l -3.019531,-0.414063 -1.8437504,2.429688 a 0.48377914,0.48375988 0 0 1 -0.40625,0.191406 z M 7.40625,11.971334 c 0.031265,0.0029 0.062485,0.0029 0.09375,0 h 1 c 0.2717763,-0.01027 0.489733,-0.228223 0.5,-0.5 V 7.9713344 h 1.5 c 0.369,-0.011 0.606,-0.5235 0.375,-0.8125 L 8.375,4.1588342 C 8.272437,4.0529182 8.1362185,3.9986782 8,3.9986782 c -0.1362185,0 -0.272437,0.054239 -0.375,0.160156 l -2.5,3.0000002 c -0.231,0.289 0.006,0.8015001 0.375,0.8125 H 7 v 3.4999996 c 0.00231,0.240905 0.1709498,0.448287 0.40625,0.5 z"
     inkscape:highlight-color="#ffffff" />
</svg>
